# xmcd CD database file
#
# Track frame offsets:
#	150
#	13785
#	32272
#	48357
#	69952
#	81375
#	103227
#	121942
#	141022
#	154832
#
# Disc length: 2328 seconds
#
# Revision: 0
# Processed by: cddbd v1.5PL3 Copyright (c) Steve Scherf et al.
# Submitted via: CDex 1.51
#
DISCID=7b09160a
DTITLE=Jenka - SKISS
DYEAR=1900
DGENRE=Rock
TTITLE0=Sequence
TTITLE1=the Day I Became a Bird
TTITLE2=Tearmaker
TTITLE3=Dida Dida
TTITLE4=Girl
TTITLE5=Do Me More
TTITLE6=Again and Again
TTITLE7=Go Home
TTITLE8=Speck
TTITLE9=For All
EXTD=
EXTT0=
EXTT1=
EXTT2=
EXTT3=
EXTT4=
EXTT5=
EXTT6=
EXTT7=
EXTT8=
EXTT9=
PLAYORDER=
